<svg width="50" height="50" viewBox="0 0 50 50" fill="none" xmlns="http://www.w3.org/2000/svg">
<path fill-rule="evenodd" clip-rule="evenodd" d="M31.3132 21.8118C31.9234 22.422 31.9234 23.4113 31.3132 24.0215L24.0215 31.3132C23.4113 31.9234 22.422 31.9234 21.8118 31.3132L17.6452 27.1465C17.035 26.5363 17.035 25.547 17.6452 24.9368C18.2554 24.3266 19.2447 24.3266 19.8549 24.9368L22.9167 27.9986L29.1035 21.8118C29.7137 21.2016 30.703 21.2016 31.3132 21.8118Z" fill="#10BB87"/>
<path fill-rule="evenodd" clip-rule="evenodd" d="M26.9415 12.934C23.7117 12.934 20.9179 14.8138 19.6003 17.5461C19.246 18.2807 18.3863 18.6192 17.6263 18.3235C16.6039 17.9257 15.4904 17.7066 14.3221 17.7066C9.28778 17.7066 5.20667 21.7877 5.20667 26.8221C5.20667 31.8564 9.28778 35.9375 14.3221 35.9375H38.5901C42.0161 35.9375 44.7934 33.1602 44.7934 29.7342C44.7934 26.3082 42.0161 23.5309 38.5901 23.5309C38.0326 23.5309 37.4947 23.6041 36.9842 23.7404C36.4837 23.8741 35.9496 23.7511 35.5581 23.412C35.1665 23.0728 34.9685 22.5617 35.0293 22.0473C35.0668 21.7303 35.0862 21.4071 35.0862 21.0787C35.0862 16.5805 31.4396 12.934 26.9415 12.934ZM17.4584 14.9875C19.462 11.8744 22.9593 9.80896 26.9415 9.80896C32.9425 9.80896 37.8481 14.4995 38.1919 20.4143C38.324 20.4088 38.4567 20.406 38.5901 20.406C43.742 20.406 47.9184 24.5824 47.9184 29.7342C47.9184 34.8861 43.742 39.0625 38.5901 39.0625H14.3221C7.56189 39.0625 2.08167 33.5822 2.08167 26.8221C2.08167 20.0619 7.56189 14.5816 14.3221 14.5816C15.4047 14.5816 16.4562 14.7226 17.4584 14.9875Z" fill="#10BB87"/>
</svg>
