<svg width="50" height="50" viewBox="0 0 50 50" fill="none" xmlns="http://www.w3.org/2000/svg">
<path fill-rule="evenodd" clip-rule="evenodd" d="M28.3621 4.81241C28.9384 5.05778 29.3125 5.62364 29.3125 6.25004V20.8296H37.5C38.0557 20.8296 38.5695 21.1247 38.8495 21.6046C39.1296 22.0845 39.1337 22.677 38.8604 23.1608L37.8352 24.975C33.9475 31.8556 28.9894 38.0735 23.1471 43.3954L21.4897 44.9051C21.0323 45.3218 20.3721 45.4293 19.8061 45.1793C19.2401 44.9293 18.875 44.3688 18.875 43.75V29.2941H10.4167C9.55374 29.2941 8.85419 28.5945 8.85419 27.7316C8.85419 27.4521 8.92757 27.1897 9.05613 26.9627C12.7203 20.1889 17.4115 14.0233 22.963 8.68534L26.667 5.12374C27.1186 4.68957 27.7857 4.56703 28.3621 4.81241ZM13.0929 26.1691H20.4375C21.3005 26.1691 22 26.8686 22 27.7316V40.197C27.0388 35.4354 31.3577 29.9639 34.8196 23.9546H27.75C26.8871 23.9546 26.1875 23.255 26.1875 22.3921V9.92007L25.1289 10.9379C20.4398 15.4467 16.3913 20.5717 13.0929 26.1691Z" fill="#10BB87"/>
</svg>
