<svg width="50" height="50" viewBox="0 0 50 50" fill="none" xmlns="http://www.w3.org/2000/svg">
<path fill-rule="evenodd" clip-rule="evenodd" d="M35.9148 7.0199H37.5C40.6641 7.0199 43.2292 9.58493 43.2292 12.7491V16.9157C43.2292 18.5911 42.0992 20.0025 40.5598 20.4293C40.8599 24.2347 40.6861 34.2923 40.0406 38.0591C39.6552 40.3084 37.8284 42.0315 35.5604 42.285L33.6553 42.4979C27.903 43.1408 22.097 43.1408 16.3448 42.4979L14.4396 42.285C12.1717 42.0315 10.3449 40.3084 9.95942 38.0591C9.31394 34.2923 9.1401 24.2347 9.44024 20.4293C7.90084 20.0025 6.77084 18.5911 6.77084 16.9157V12.7491C6.77084 9.58493 9.33588 7.0199 12.5 7.0199H14.0852H19.7917H30.2083H35.9148ZM9.89584 12.7491C9.89584 11.3108 11.0618 10.1449 12.5 10.1449H23.4375H26.5625H37.5C38.9383 10.1449 40.1042 11.3108 40.1042 12.7491V16.9157C40.1042 17.2034 39.871 17.4366 39.5833 17.4366H26.5625H23.4375H10.4167C10.129 17.4366 9.89584 17.2034 9.89584 16.9157V12.7491ZM26.5625 20.5616H37.4354C37.7277 24.1461 37.5686 33.9826 36.9605 37.5313C36.8102 38.4085 36.0978 39.0805 35.2133 39.1793L33.3082 39.3923C31.0658 39.6429 28.815 39.7917 26.5625 39.8388V20.5616ZM23.4375 20.5616V39.8388C21.1851 39.7917 18.9342 39.6429 16.6919 39.3923L14.7867 39.1793C13.9023 39.0805 13.1898 38.4085 13.0395 37.5313C12.4314 33.9826 12.2724 24.1461 12.5647 20.5616H23.4375Z" fill="#10BB87"/>
</svg>
