<svg width="50" height="50" viewBox="0 0 50 50" fill="none" xmlns="http://www.w3.org/2000/svg">
<path d="M14.3013 14.3383C17.0377 11.5924 20.8193 9.89587 25 9.89587C33.3418 9.89587 40.1041 16.6582 40.1041 25C40.1041 33.3418 33.3418 40.1042 25 40.1042C16.6582 40.1042 9.89581 33.3418 9.89581 25C9.89581 24.1371 9.19626 23.4375 8.33331 23.4375C7.47037 23.4375 6.77081 24.1371 6.77081 25C6.77081 35.0677 14.9323 43.2292 25 43.2292C35.0677 43.2292 43.2291 35.0677 43.2291 25C43.2291 14.9324 35.0677 6.77087 25 6.77087C19.9552 6.77087 15.3866 8.82217 12.0878 12.1324C12.0347 12.1856 11.9863 12.2416 11.9426 12.3001L9.32264 9.68014C9.03684 9.39433 8.61151 9.29966 8.23146 9.43726C7.85142 9.57485 7.58528 9.91987 7.54868 10.3224L6.81211 18.4247C6.78412 18.7325 6.89433 19.0369 7.11293 19.2555C7.33153 19.4741 7.63593 19.5843 7.94381 19.5564L16.0461 18.8198C16.4486 18.7832 16.7936 18.5171 16.9312 18.137C17.0688 17.757 16.9741 17.3316 16.6883 17.0458L14.1298 14.4873C14.1896 14.4424 14.2469 14.3928 14.3013 14.3383Z" fill="#10BB87"/>
<path d="M26.5625 14.5834C26.5625 13.7204 25.8629 13.0209 25 13.0209C24.137 13.0209 23.4375 13.7204 23.4375 14.5834V25C23.4375 25.5388 23.715 26.0395 24.1719 26.325L30.4219 30.2313C31.1536 30.6887 32.1176 30.4662 32.575 29.7344C33.0323 29.0026 32.8099 28.0387 32.0781 27.5813L26.5625 24.134V14.5834Z" fill="#10BB87"/>
</svg>
