<svg width="20" height="20" viewBox="0 0 20 20" fill="none" xmlns="http://www.w3.org/2000/svg">
<path fill-rule="evenodd" clip-rule="evenodd" d="M9.5 5.0247V9.5H5.0247C5.25924 7.1378 7.1378 5.25924 9.5 5.0247ZM9.5 4.02055C6.58511 4.26103 4.26103 6.58511 4.02055 9.5H0V10.5H4.02055C4.26102 13.4149 6.5851 15.739 9.5 15.9795V20H10.5V15.9795C13.4149 15.739 15.739 13.4149 15.9795 10.5H20V9.5H15.9795C15.739 6.5851 13.4149 4.26102 10.5 4.02055V0H9.5V4.02055ZM10.5 5.0247V9.5H14.9753C14.7408 7.13779 12.8622 5.25923 10.5 5.0247ZM14.9753 10.5H10.5V14.9753C12.8622 14.7408 14.7408 12.8622 14.9753 10.5ZM9.5 14.9753V10.5H5.0247C5.25923 12.8622 7.13779 14.7408 9.5 14.9753Z" fill="#B3B3B3"/>
</svg>
