<svg width="20" height="20" viewBox="0 0 20 20" fill="none" xmlns="http://www.w3.org/2000/svg">
<path fill-rule="evenodd" clip-rule="evenodd" d="M15.9565 4.37508H4.44603L3.46255 2.61225C3.35216 2.41438 3.14333 2.29175 2.91675 2.29175H1.66675C1.32157 2.29175 1.04175 2.57157 1.04175 2.91675C1.04175 3.26193 1.32157 3.54175 1.66675 3.54175H2.54975L3.52033 5.28146L5.75872 10.2341L5.76102 10.2392L5.95817 10.6754L3.7108 13.0726C3.54921 13.245 3.49863 13.4937 3.58007 13.7155C3.66151 13.9373 3.86106 14.0942 4.0958 14.121L6.14424 14.3551C8.70647 14.648 11.2937 14.648 13.856 14.3551L15.9044 14.121C16.2473 14.0818 16.4936 13.7721 16.4544 13.4291C16.4152 13.0862 16.1054 12.8399 15.7625 12.8791L13.714 13.1132C11.2461 13.3953 8.75409 13.3953 6.28618 13.1132L5.47324 13.0203L7.12272 11.2609C7.13868 11.2439 7.1535 11.2262 7.16718 11.2079L7.79453 11.2896C8.67363 11.404 9.56226 11.4264 10.446 11.3565C12.5072 11.1935 14.4176 10.2127 15.7513 8.63264L16.233 8.06196C16.2492 8.04279 16.2642 8.02267 16.278 8.0017L17.1758 6.63349C17.8122 5.66369 17.1165 4.37508 15.9565 4.37508ZM7.21364 9.95346C7.0758 9.93552 6.95694 9.84796 6.8989 9.72178L6.89779 9.71934L5.04736 5.62508H15.9565C16.1222 5.62508 16.2216 5.80917 16.1307 5.94771L15.2536 7.28444L14.7961 7.82635C13.6778 9.15124 12.0759 9.97368 10.3475 10.1104C9.55031 10.1734 8.74877 10.1532 7.95582 10.05L7.21364 9.95346Z" fill="black"/>
<path d="M5.41675 15.4167C4.72639 15.4167 4.16675 15.9764 4.16675 16.6667C4.16675 17.3571 4.72639 17.9167 5.41675 17.9167C6.1071 17.9167 6.66675 17.3571 6.66675 16.6667C6.66675 15.9764 6.1071 15.4167 5.41675 15.4167Z" fill="black"/>
<path d="M13.3334 16.6667C13.3334 15.9764 13.8931 15.4167 14.5834 15.4167C15.2738 15.4167 15.8334 15.9764 15.8334 16.6667C15.8334 17.3571 15.2738 17.9167 14.5834 17.9167C13.8931 17.9167 13.3334 17.3571 13.3334 16.6667Z" fill="black"/>
</svg>
