<svg width="52" height="53" viewBox="0 0 52 53" fill="none" xmlns="http://www.w3.org/2000/svg">
<path fill-rule="evenodd" clip-rule="evenodd" d="M40.554 23.0141L40.54 23.5365L40.554 24.0897L40.5407 24.613L40.554 25.1654L40.5413 25.6922L40.5539 26.241L40.2046 41.5215C40.1217 45.147 37.3643 48.1494 33.7589 48.5398C28.6229 49.096 23.4419 49.096 18.3059 48.5398C14.7006 48.1494 11.9431 45.147 11.8603 41.5215L11.5109 26.241L11.5236 25.6886L11.511 25.1654L11.5242 24.6152L11.5109 24.0897L11.5249 23.5389L11.5107 23.0141L11.8636 9.89582C11.8685 9.71279 11.8813 9.53167 11.9018 9.35278L11.9099 9.27714L11.9162 9.21618C12.0896 7.44332 13.0721 5.89707 14.5038 4.96916C14.6106 4.89813 14.7199 4.83047 14.8316 4.76637C14.9409 4.70172 15.0524 4.6404 15.166 4.58257C15.8686 4.21176 16.6527 3.97143 17.4874 3.89459C23.172 3.37132 28.8927 3.37132 34.5774 3.89459C35.4107 3.97131 36.1937 4.211 36.8954 4.58079C37.0091 4.63855 37.1206 4.69978 37.2299 4.76434C37.3451 4.83037 37.4578 4.90016 37.5678 4.97356C38.9919 5.89939 39.9701 7.43761 40.1472 9.20155L40.1639 9.36139C40.1838 9.53748 40.1964 9.71573 40.2012 9.89583L40.554 23.0141ZM36.9485 9.72075L37.2862 24.4928L37.0125 40.6545C36.951 42.9421 35.1889 44.8224 32.9101 45.0322C28.3346 45.4534 23.7301 45.4534 19.1547 45.0322C16.8759 44.8224 15.1138 42.9421 15.0523 40.6545L14.7786 24.4941L15.1164 9.72075C15.1171 9.68896 15.1184 9.65732 15.1203 9.62582C15.2483 8.76041 15.7498 8.01339 16.4609 7.55977C16.7303 7.41933 17.0292 7.3262 17.3471 7.29177C23.1204 6.66655 28.9444 6.66655 34.7177 7.29177C35.0355 7.32619 35.3343 7.41926 35.6036 7.5596C36.315 8.01333 36.8168 8.76071 36.9446 9.62654C36.9465 9.6578 36.9478 9.68921 36.9485 9.72075ZM26.0325 42.0465C27.8146 42.0465 29.2594 40.6017 29.2594 38.8196C29.2594 37.0374 27.8146 35.5927 26.0325 35.5927C24.2503 35.5927 22.8056 37.0374 22.8056 38.8196C22.8056 40.6017 24.2503 42.0465 26.0325 42.0465Z" fill="#10BB87"/>
</svg>
