<svg width="52" height="53" viewBox="0 0 52 53" fill="none" xmlns="http://www.w3.org/2000/svg">
<path d="M21.0847 38.0729C22.0352 38.0729 22.8057 37.3024 22.8057 36.3519V25.8107C22.8057 24.8602 22.0352 24.0896 21.0847 24.0896H20.2242C19.2737 24.0896 18.5032 24.8602 18.5032 25.8107V36.3519C18.5032 37.3024 19.2737 38.0729 20.2242 38.0729H21.0847Z" fill="#10BB87"/>
<path d="M27.1022 14.4089H9.46784C8.51735 14.4089 7.74683 15.1795 7.74683 16.13V36.3519C7.74683 37.3024 8.51735 38.0729 9.46784 38.0729H9.94824C10.8987 38.0729 11.6693 37.3024 11.6693 36.3519V20.3235C11.6693 19.529 12.3061 18.8336 13.1509 18.8336H24.4778C26.401 18.8336 27.7475 19.6222 28.5804 20.7432C29.3762 21.8145 29.6429 23.103 29.6429 24.0896V36.3519C29.6429 37.3024 30.4134 38.0729 31.3639 38.0729H31.841C32.7915 38.0729 33.562 37.3024 33.562 36.3519V21.0101C33.562 19.6387 33.4014 17.8935 31.89 16.3486C31.0412 15.4833 30.2706 15.0156 29.5335 14.7533C28.787 14.4876 28.01 14.4089 27.1022 14.4089Z" fill="#10BB87"/>
<path d="M42.5974 38.0729C43.5479 38.0729 44.3184 37.3024 44.3184 36.3519V16.1299C44.3184 15.1795 43.5479 14.4089 42.5974 14.4089H41.7369C40.7864 14.4089 40.0158 15.1795 40.0158 16.13V36.3519C40.0158 37.3024 40.7864 38.0729 41.7369 38.0729H42.5974Z" fill="#10BB87"/>
</svg>
