<svg width="52" height="53" viewBox="0 0 52 53" fill="none" xmlns="http://www.w3.org/2000/svg">
<path fill-rule="evenodd" clip-rule="evenodd" d="M17.9928 44.2127C16.6098 43.7877 15.6506 42.5297 15.6068 41.0835L15.4358 14.1316H34.4784L34.3074 41.0835C34.2636 42.5297 33.3044 43.7877 31.9214 44.2127C27.3833 45.6075 22.5309 45.6075 17.9928 44.2127ZM18.8322 40.9858L18.6889 36.2549C20.5865 37.1643 22.7123 37.6737 24.9571 37.6737C27.2019 37.6737 29.3277 37.1643 31.2253 36.2549L31.082 40.9858C31.08 41.0516 31.0363 41.1089 30.9734 41.1282C27.053 42.3332 22.8612 42.3332 18.9408 41.1282C18.8779 41.1089 18.8342 41.0516 18.8322 40.9858ZM18.8322 33.4322L18.6889 17.5269L31.2253 17.5268L31.082 33.4322C31.08 33.498 31.0363 33.5553 30.9734 33.5746C27.053 34.7796 22.8612 34.7796 18.9408 33.5746C18.8779 33.5553 18.8342 33.498 18.8322 33.4322Z" fill="#10BB87"/>
<path d="M19.0415 8.83635C19.0415 7.94527 19.7639 7.2229 20.655 7.2229H29.26C30.1511 7.2229 30.8735 7.94529 30.8735 8.83637V12.0633H19.0415V8.83635Z" fill="#10BB87"/>
</svg>
