<svg width="52" height="53" viewBox="0 0 52 53" fill="none" xmlns="http://www.w3.org/2000/svg">
<path fill-rule="evenodd" clip-rule="evenodd" d="M15.8141 16.0223V15.7644C15.8141 11.101 18.9713 7.02923 23.4878 5.86785C25.1572 5.43858 26.908 5.43858 28.5774 5.86785C33.0939 7.02923 36.2511 11.101 36.2511 15.7644V16.0223H39.4804C40.7094 16.0223 41.7525 16.9236 41.9306 18.1396L42.401 21.3503C43.3273 27.6717 43.3273 34.0944 42.401 40.4158C41.9538 43.4685 39.4921 45.8285 36.4232 46.1468L35.0703 46.2871C29.0613 46.9103 23.0039 46.9103 16.9948 46.2871L15.642 46.1468C12.5731 45.8285 10.1114 43.4685 9.66414 40.4158C8.73793 34.0944 8.73793 27.6717 9.66414 21.3503L10.1346 18.1396C10.3127 16.9236 11.3558 16.0223 12.5847 16.0223H15.8141ZM24.2914 8.99309C25.4336 8.69937 26.6316 8.69937 27.7738 8.99309C30.864 9.78771 33.0242 12.5737 33.0242 15.7644V16.0223H19.041V15.7644C19.041 12.5737 21.2012 9.78771 24.2914 8.99309ZM15.8141 19.2492V24.0896C15.8141 24.9806 16.5364 25.703 17.4275 25.703C18.3186 25.703 19.041 24.9806 19.041 24.0896V19.2492H33.0242V24.0896C33.0242 24.9806 33.7466 25.703 34.6377 25.703C35.5288 25.703 36.2511 24.9806 36.2511 24.0896V19.2492H38.8318L39.2082 21.8181C40.089 27.8293 40.089 33.9368 39.2082 39.948C38.9749 41.5402 37.691 42.7711 36.0904 42.9371L34.7375 43.0774C28.9497 43.6776 23.1154 43.6776 17.3277 43.0774L15.9748 42.9371C14.3742 42.7711 13.0902 41.5402 12.857 39.948C11.9762 33.9368 11.9762 27.8293 12.857 21.8181L13.2334 19.2492H15.8141Z" fill="#10BB87"/>
</svg>
