<svg width="52" height="53" viewBox="0 0 52 53" fill="none" xmlns="http://www.w3.org/2000/svg">
<path fill-rule="evenodd" clip-rule="evenodd" d="M13.1068 7.04148C13.1976 6.22437 13.8882 5.6062 14.7104 5.6062H37.3553C38.1774 5.6062 38.8681 6.22437 38.9589 7.04148L39.3895 10.9167C39.4345 11.322 39.4769 11.6752 39.5168 12.0068C39.6795 13.3607 39.7988 14.3538 39.8748 17.0665L36.616 16.0547C36.5486 14.0308 36.4554 13.3537 36.3364 12.4888C36.2891 12.1452 36.2377 11.772 36.1823 11.273L35.9112 8.8331H16.1545L15.8834 11.273C15.1292 18.0608 15.1292 33.3874 15.8833 40.1751L15.9257 40.5566C16.0727 41.879 17.0976 42.9335 18.4153 43.118C23.469 43.8255 28.5966 43.8255 33.6503 43.118C34.968 42.9335 35.9929 41.879 36.1399 40.5566L36.1823 40.1751C36.2571 39.5014 36.3246 36.1898 36.3846 35.324L39.6313 35.1247C39.5614 36.2083 39.4807 39.7096 39.3894 40.5315L39.347 40.913C39.0372 43.7013 36.8762 45.9247 34.0977 46.3137C28.7472 47.0628 23.3184 47.0628 17.9679 46.3137C15.1894 45.9247 13.0284 43.7013 12.7186 40.913L12.6762 40.5315C11.8957 33.5069 11.8957 17.9412 12.6762 10.9167L13.1068 7.04148Z" fill="#10BB87"/>
<path fill-rule="evenodd" clip-rule="evenodd" d="M38.4731 19.973C36.6638 18.9887 34.4003 18.9056 32.862 19.1728C31.984 19.3252 31.1487 18.7371 30.9963 17.8592C30.8438 16.9812 31.4319 16.1459 32.3099 15.9935C34.3158 15.6451 37.3751 15.7021 40.0152 17.1384C42.7966 18.6515 44.8671 21.5668 44.8958 26.3598C44.9099 28.7148 44.4242 30.646 43.5346 32.1886C42.6419 33.7368 41.3945 34.8026 40.0341 35.4998C37.3721 36.864 34.2827 36.8246 32.2677 36.4192C31.3941 36.2435 30.8284 35.3928 31.0042 34.5193C31.1799 33.6457 32.0306 33.08 32.9042 33.2557C34.4759 33.5719 36.7601 33.5517 38.5624 32.628C39.4342 32.1813 40.1916 31.5264 40.7392 30.5767C41.2901 29.6213 41.6803 28.2773 41.6689 26.3791C41.6467 22.666 40.1411 20.8803 38.4731 19.973Z" fill="#10BB87"/>
<path fill-rule="evenodd" clip-rule="evenodd" d="M33.7637 25.4088C33.5279 25.2806 33.1469 25.247 32.862 25.2965C31.984 25.449 31.1487 24.8608 30.9963 23.9829C30.8438 23.1049 31.4319 22.2696 32.3099 22.1172C33.0623 21.9865 34.2392 21.994 35.3057 22.5742C36.5136 23.2313 37.3194 24.4841 37.3301 26.2688C37.3352 27.1197 37.1592 27.8926 36.7791 28.5518C36.3958 29.2166 35.8574 29.6738 35.2864 29.9665C34.2032 30.5216 33.0142 30.4889 32.2677 30.3388C31.3941 30.163 30.8284 29.3124 31.0042 28.4388C31.1799 27.5652 32.0306 26.9995 32.9042 27.1752C33.0272 27.2 33.2038 27.2159 33.3894 27.2008C33.5755 27.1857 33.7189 27.1438 33.8147 27.0947C33.897 27.0525 33.9454 27.0062 33.9837 26.9398C34.0252 26.8679 34.1056 26.6822 34.1032 26.2882C34.1009 25.8929 34.0187 25.6931 33.9673 25.6034C33.9182 25.5179 33.8556 25.4588 33.7637 25.4088Z" fill="#10BB87"/>
</svg>
