<svg width="52" height="53" viewBox="0 0 52 53" fill="none" xmlns="http://www.w3.org/2000/svg">
<path fill-rule="evenodd" clip-rule="evenodd" d="M37.17 7.62506C36.7981 7.25317 36.2937 7.04425 35.7678 7.04425C35.2419 7.04425 34.7375 7.25317 34.3656 7.62506L10.0608 31.9299C9.81167 32.179 9.63341 32.49 9.54437 32.8309L6.90035 42.9533C6.72244 43.6345 6.91899 44.3589 7.41679 44.8567C7.91459 45.3545 8.639 45.551 9.32015 45.3731L19.4426 42.7291C19.7835 42.6401 20.0945 42.4618 20.3436 42.2127L44.6484 17.9079C45.4228 17.1335 45.4228 15.8779 44.6484 15.1035L37.17 7.62506ZM13.2457 34.3538L35.7678 11.8317L40.4418 16.5057L17.9197 39.0278L11.5932 40.6803L13.2457 34.3538Z" fill="#10BB87"/>
</svg>
