<svg width="52" height="53" viewBox="0 0 52 53" fill="none" xmlns="http://www.w3.org/2000/svg">
<path d="M21.73 4.46613C20.8389 4.46613 20.1165 5.18849 20.1165 6.07958V7.69303H12.5871C11.696 7.69303 10.9736 8.41539 10.9736 9.30648C10.9736 10.1976 11.696 10.9199 12.5871 10.9199H39.4779C40.369 10.9199 41.0914 10.1976 41.0914 9.30648C41.0914 8.41539 40.369 7.69303 39.4779 7.69303H31.9485V6.07958C31.9485 5.18849 31.2261 4.46613 30.335 4.46613H21.73Z" fill="#10BB87"/>
<path fill-rule="evenodd" clip-rule="evenodd" d="M13.1065 16.6577C13.1972 15.8406 13.8879 15.2225 14.71 15.2225H37.355C38.1771 15.2225 38.8678 15.8406 38.9585 16.6577L39.3891 20.5329C40.1696 27.5575 40.1696 34.6469 39.3891 41.6715L39.3467 42.053C39.0369 44.8414 36.8759 47.0648 34.0974 47.4538C28.7469 48.2028 23.3181 48.2028 17.9676 47.4538C15.1891 47.0648 13.0281 44.8414 12.7183 42.053L12.6759 41.6715C11.8954 34.6469 11.8954 27.5575 12.6759 20.5329L13.1065 16.6577ZM16.1541 18.4494L15.883 20.8893C15.1288 27.677 15.1288 34.5274 15.883 41.3152L15.9254 41.6967C16.0724 43.0191 17.0973 44.0736 18.415 44.258C23.4687 44.9656 28.5963 44.9656 33.65 44.258C34.9677 44.0736 35.9926 43.0191 36.1396 41.6967L36.182 41.3152C36.9361 34.5274 36.9361 27.677 36.182 20.8893L35.9109 18.4494H16.1541Z" fill="#10BB87"/>
</svg>
