<svg width="52" height="53" viewBox="0 0 52 53" fill="none" xmlns="http://www.w3.org/2000/svg">
<path fill-rule="evenodd" clip-rule="evenodd" d="M13.6628 12.2576C13.6628 8.39625 16.793 5.26599 20.6544 5.26599C22.8169 5.26599 24.7501 6.24776 26.0326 7.78989C27.3151 6.24776 29.2482 5.26599 31.4107 5.26599C35.2721 5.26599 38.4024 8.39625 38.4024 12.2576C38.4024 13.6437 37.999 14.9356 37.3033 16.0223H38.9402C42.2075 16.0223 44.8562 18.671 44.8562 21.9383V26.2409C44.8562 27.9708 43.6893 29.4282 42.0997 29.869C42.4097 33.7985 42.2302 37.7537 41.5636 41.6433C41.1656 43.966 39.2793 45.7453 36.9373 46.007L34.9701 46.2269C29.0302 46.8907 23.0349 46.8907 17.0951 46.2269L15.1278 46.007C12.7859 45.7453 10.8995 43.966 10.5015 41.6433C9.83501 37.7537 9.6555 33.7985 9.96542 29.869C8.37583 29.4282 7.20898 27.9708 7.20898 26.2409V21.9383C7.20898 18.671 9.85766 16.0223 13.125 16.0223H14.7619C14.0661 14.9356 13.6628 13.6437 13.6628 12.2576ZM24.4191 12.2576C24.4191 10.1784 22.7336 8.49289 20.6544 8.49289C18.5752 8.49289 16.8897 10.1784 16.8897 12.2576C16.8897 14.3368 18.5752 16.0223 20.6544 16.0223C22.7336 16.0223 24.4191 14.3368 24.4191 12.2576ZM31.4107 16.0223C33.4899 16.0223 35.1755 14.3368 35.1755 12.2576C35.1755 10.1784 33.4899 8.49289 31.4107 8.49289C29.3316 8.49289 27.646 10.1784 27.646 12.2576C27.646 14.3368 29.3316 16.0223 31.4107 16.0223ZM10.4359 21.9383C10.4359 20.4532 11.6398 19.2492 13.125 19.2492H24.4191V26.7787H10.9737C10.6767 26.7787 10.4359 26.5379 10.4359 26.2409V21.9383ZM27.646 30.0056H38.8734C39.1753 33.707 39.011 37.4339 38.3831 41.0983C38.2279 42.0041 37.4922 42.698 36.5789 42.8001L34.6116 43.0199C32.2962 43.2787 29.9719 43.4324 27.646 43.481V30.0056ZM27.646 26.7787H41.0915C41.3885 26.7787 41.6293 26.5379 41.6293 26.2409V21.9383C41.6293 20.4532 40.4253 19.2492 38.9402 19.2492H27.646V26.7787ZM24.4191 30.0056V43.481C22.0932 43.4324 19.769 43.2787 17.4535 43.0199L15.4862 42.8001C14.5729 42.698 13.8373 42.0041 13.6821 41.0983C13.0541 37.4339 12.8899 33.707 13.1917 30.0056H24.4191Z" fill="#10BB87"/>
</svg>
