<svg width="52" height="53" viewBox="0 0 52 53" fill="none" xmlns="http://www.w3.org/2000/svg">
<path fill-rule="evenodd" clip-rule="evenodd" d="M37.1181 39.5975L37.4996 39.5551C39.706 39.3099 41.5586 37.9057 42.4286 35.9537C42.658 35.4387 42.8192 34.8857 42.9004 34.3058C43.6494 28.9552 43.6494 23.5264 42.9004 18.1759C42.8192 17.596 42.658 17.0429 42.4286 16.528C41.5591 14.5772 39.7083 13.1735 37.5037 12.9271L37.4996 12.9266L37.1181 12.8842C30.0935 12.1037 23.0041 12.1037 15.9795 12.8842L15.598 12.9266C12.8096 13.2364 10.5862 15.3975 10.1973 18.1759C9.44818 23.5264 9.44818 28.9552 10.1973 34.3058C10.5862 37.0842 12.8096 39.2452 15.598 39.5551L15.9795 39.5975L19.0036 39.8517L19.0036 45.5999C19.0036 46.491 19.726 47.2134 20.6171 47.2134C21.5081 47.2134 22.2305 46.491 22.2305 45.5999L22.2305 40.1709C23.3024 40.2462 24.3791 40.2964 25.4574 40.3214L25.4574 43.4486C25.4574 44.3397 26.1798 45.0621 27.0709 45.0621C27.9619 45.0621 28.6843 44.3397 28.6843 43.4486L28.6843 40.3214C29.7626 40.2964 30.8393 40.2462 31.9112 40.1709L31.9112 45.5999C31.9112 46.491 32.6336 47.2134 33.5247 47.2134C34.4157 47.2134 35.1381 46.491 35.1381 45.5999L35.1381 39.8517L37.1181 39.5975ZM36.7618 16.0914C29.974 15.3372 23.1236 15.3372 16.3359 16.0914L15.9544 16.1338C14.6319 16.2807 13.5775 17.3056 13.393 18.6233C12.6855 23.677 12.6855 28.8046 13.393 33.8584C13.5775 35.1761 14.6319 36.201 15.9544 36.3479L16.3358 36.3903C21.109 36.9238 31.9886 36.9238 36.7618 36.3903L37.1433 36.3479C37.9935 36.2534 38.733 35.796 39.2017 35.1312C39.462 34.762 39.6387 34.3289 39.7046 33.8584C40.4121 28.8046 40.4121 23.677 39.7046 18.6233C39.6387 18.1528 39.462 17.7196 39.2017 17.3504C38.733 16.6856 37.9935 16.2282 37.1432 16.1338L36.7618 16.0914Z" fill="#10BB87"/>
</svg>
