<svg width="52" height="53" viewBox="0 0 52 53" fill="none" xmlns="http://www.w3.org/2000/svg">
<path d="M37.1181 39.5975L37.4996 39.5551C39.706 39.3099 41.5586 37.9057 42.4286 35.9537C42.658 35.4387 42.8192 34.8857 42.9004 34.3058C43.6494 28.9552 43.6494 23.5264 42.9004 18.1759C42.8192 17.596 42.658 17.0429 42.4286 16.528C41.5591 14.5772 39.7083 13.1735 37.5037 12.9271L37.4996 12.9266L37.1181 12.8842C30.0935 12.1037 23.0041 12.1037 15.9795 12.8842L15.598 12.9266C12.8096 13.2364 10.5862 15.3975 10.1973 18.1759C9.44818 23.5264 9.44818 28.9552 10.1973 34.3058C10.5862 37.0842 12.8096 39.2452 15.598 39.5551L15.9795 39.5975L16.3358 36.3903L15.9544 36.3479C14.6319 36.201 13.5775 35.1761 13.393 33.8584C12.6855 28.8046 12.6855 23.677 13.393 18.6233C13.5775 17.3056 14.6319 16.2807 15.9544 16.1338L16.3359 16.0914C23.1236 15.3372 29.974 15.3372 36.7618 16.0914L37.1432 16.1338C37.9935 16.2282 38.733 16.6856 39.2017 17.3504C39.462 17.7196 39.6387 18.1528 39.7046 18.6233C40.4121 23.677 40.4121 28.8046 39.7046 33.8584C39.6387 34.3289 39.462 34.762 39.2017 35.1312C38.733 35.796 37.9935 36.2534 37.1433 36.3479L36.7618 36.3903L37.1181 39.5975Z" fill="#10BB87"/>
<path fill-rule="evenodd" clip-rule="evenodd" d="M26.5488 46.408C30.8067 46.408 34.2584 42.9563 34.2584 38.6984C34.2584 34.4406 30.8067 30.9889 26.5488 30.9889C22.2909 30.9889 18.8392 34.4406 18.8392 38.6984C18.8392 42.9563 22.2909 46.408 26.5488 46.408ZM26.5488 49.6349C32.5888 49.6349 37.4853 44.7385 37.4853 38.6984C37.4853 32.6584 32.5888 27.762 26.5488 27.762C20.5087 27.762 15.6123 32.6584 15.6123 38.6984C15.6123 44.7385 20.5087 49.6349 26.5488 49.6349Z" fill="#10BB87"/>
<path fill-rule="evenodd" clip-rule="evenodd" d="M26.549 40.56C27.577 40.56 28.4104 39.7266 28.4104 38.6985C28.4104 37.6704 27.577 36.837 26.549 36.837C25.5209 36.837 24.6875 37.6704 24.6875 38.6985C24.6875 39.7266 25.5209 40.56 26.549 40.56Z" fill="#10BB87"/>
</svg>
