<svg width="16" height="16" viewBox="0 0 16 16" xmlns="http://www.w3.org/2000/svg">
<path d="M5.33329 6.33336C4.87306 6.33336 4.49996 6.70645 4.49996 7.16669C4.49996 7.62693 4.87306 8.00003 5.33329 8.00003C5.79353 8.00003 6.16663 7.62693 6.16663 7.16669C6.16663 6.70645 5.79353 6.33336 5.33329 6.33336Z" fill="currentcolor"/>
<path d="M7.99996 6.33336C7.53972 6.33336 7.16663 6.70645 7.16663 7.16669C7.16663 7.62693 7.53972 8.00003 7.99996 8.00003C8.4602 8.00003 8.83329 7.62693 8.83329 7.16669C8.83329 6.70645 8.4602 6.33336 7.99996 6.33336Z" fill="currentcolor"/>
<path d="M9.83329 7.16669C9.83329 6.70645 10.2064 6.33336 10.6666 6.33336C11.1269 6.33336 11.5 6.70645 11.5 7.16669C11.5 7.62693 11.1269 8.00003 10.6666 8.00003C10.2064 8.00003 9.83329 7.62693 9.83329 7.16669Z" fill="currentcolor"/>
<path fill-rule="evenodd" clip-rule="evenodd" d="M10.7338 3.06189C8.93765 2.90871 7.13214 2.89982 5.33459 3.0353L5.20577 3.04501C3.49156 3.17421 2.16663 4.60277 2.16663 6.32183V12C2.16663 12.1759 2.25907 12.3389 2.41006 12.4292C2.56105 12.5194 2.74836 12.5237 2.90332 12.4405L5.51051 11.0393C5.63179 10.9741 5.76732 10.94 5.905 10.94H11.8893C12.644 10.94 13.2908 10.4004 13.4261 9.65793C13.7003 8.15311 13.7219 6.61313 13.4902 5.10119L13.4219 4.65564C13.2975 3.84447 12.6339 3.22393 11.8163 3.1542L10.7338 3.06189ZM5.40974 4.03248C7.15398 3.90101 8.90595 3.90964 10.6488 4.05827L11.7313 4.15058C12.0889 4.18108 12.379 4.45244 12.4334 4.80715L12.5017 5.2527C12.7166 6.65489 12.6966 8.08309 12.4423 9.47868C12.3936 9.74586 12.1609 9.94003 11.8893 9.94003H5.905C5.60211 9.94003 5.30393 10.0151 5.03713 10.1585L3.16663 11.1637V6.32183C3.16663 5.1259 4.08837 4.13207 5.28092 4.04219L5.40974 4.03248Z" fill="currentcolor"/>
</svg>
