<svg width="18" height="18" viewBox="0 0 18 18" fill="none" xmlns="http://www.w3.org/2000/svg">
<path d="M11.8125 9.75C11.8125 9.43934 11.5607 9.1875 11.25 9.1875H6.75C6.43934 9.1875 6.1875 9.43934 6.1875 9.75C6.1875 10.0607 6.43934 10.3125 6.75 10.3125H11.25C11.5607 10.3125 11.8125 10.0607 11.8125 9.75Z" fill="#487B6C"/>
<path d="M11.8125 12.75C11.8125 12.4393 11.5607 12.1875 11.25 12.1875H6.75C6.43934 12.1875 6.1875 12.4393 6.1875 12.75C6.1875 13.0607 6.43934 13.3125 6.75 13.3125H11.25C11.5607 13.3125 11.8125 13.0607 11.8125 12.75Z" fill="#487B6C"/>
<path fill-rule="evenodd" clip-rule="evenodd" d="M5.25 1.6875C4.11091 1.6875 3.1875 2.61091 3.1875 3.75V14.25C3.1875 15.3891 4.11091 16.3125 5.25 16.3125H12.75C13.8891 16.3125 14.8125 15.3891 14.8125 14.25V5.97574C14.8125 5.69016 14.7194 5.41238 14.5472 5.18452L12.2989 2.20878C12.0508 1.88047 11.6631 1.6875 11.2517 1.6875H5.25ZM4.3125 3.75C4.3125 3.23223 4.73223 2.8125 5.25 2.8125H10.6875V6.11028C10.6875 6.42094 10.9393 6.67278 11.25 6.67278H13.6875V14.25C13.6875 14.7678 13.2678 15.1875 12.75 15.1875H5.25C4.73223 15.1875 4.3125 14.7678 4.3125 14.25V3.75Z" fill="#487B6C"/>
</svg>
