<svg width="16" height="16" viewBox="0 0 16 16" fill="curentColor" xmlns="http://www.w3.org/2000/svg">
<path fill="currentColor" fill-rule="evenodd" clip-rule="evenodd" d="M14.3033 3.6105C14.4314 3.80458 14.4101 4.06832 14.2392 4.23917L8.11095 10.3674C8.04814 10.4302 7.96971 10.4752 7.88376 10.4976L5.33148 11.1643C5.24823 11.1861 5.16243 11.1856 5.08181 11.1651C4.9961 11.1433 4.91625 11.0988 4.85157 11.0341C4.72605 10.9086 4.67649 10.7259 4.72135 10.5542L5.38802 8.00189C5.40767 7.92669 5.44453 7.85241 5.49552 7.79414L11.6465 1.64645C11.7003 1.5926 11.7652 1.55231 11.8358 1.52775C11.8881 1.50955 11.9436 1.5 12 1.5C12.1326 1.5 12.2598 1.55268 12.3536 1.64645L14.2392 3.53206C14.2636 3.55647 14.285 3.58278 14.3033 3.6105ZM13.1786 3.88562L12 2.70711L6.32127 8.38588L5.90461 9.98106L7.49978 9.56439L13.1786 3.88562Z" />
<path fill="currentColor" d="M13.0943 11.4402C13.2765 9.8818 13.3345 8.31252 13.2683 6.74719C13.2651 6.67225 13.2933 6.59932 13.3463 6.54628L14.0019 5.89073C14.0825 5.81013 14.2202 5.86129 14.2277 5.97503C14.351 7.8348 14.3043 9.70302 14.0875 11.5564C13.9298 12.9047 12.8469 13.9614 11.5055 14.1113C9.19449 14.3696 6.8056 14.3696 4.49455 14.1113C3.15318 13.9614 2.07029 12.9047 1.91259 11.5564C1.63623 9.19351 1.63623 6.80649 1.91259 4.44362C2.07029 3.09527 3.15318 2.03859 4.49455 1.88867C6.24772 1.69273 8.04568 1.64543 9.82047 1.74677C9.93486 1.75331 9.987 1.89172 9.90599 1.97273L9.24429 2.63443C9.19182 2.6869 9.11988 2.71507 9.04573 2.71257C7.56145 2.66251 6.06708 2.71915 4.60563 2.88249C3.71889 2.98159 3.00856 3.68134 2.90582 4.55979C2.63849 6.84547 2.63849 9.15452 2.90582 11.4402C3.00856 12.3187 3.71889 13.0184 4.60563 13.1175C6.84286 13.3675 9.15724 13.3675 11.3945 13.1175C12.2812 13.0184 12.9915 12.3187 13.0943 11.4402Z" />
</svg>
