<svg width="20" height="20" viewBox="0 0 20 20" fill="none" xmlns="http://www.w3.org/2000/svg">
<path fill-rule="evenodd" clip-rule="evenodd" d="M8.73978 3.15641C9.56025 2.33594 10.6731 1.875 11.8334 1.875H14.0834C14.4286 1.875 14.7084 2.15482 14.7084 2.5V5.5C14.7084 5.84518 14.4286 6.125 14.0834 6.125H11.8334C11.8002 6.125 11.7684 6.13817 11.745 6.16161C11.7215 6.18505 11.7084 6.21685 11.7084 6.25V7.875H14.0834C14.2758 7.875 14.4576 7.96367 14.576 8.11537C14.6944 8.26706 14.7364 8.46487 14.6897 8.65158L13.9397 11.6516C13.8702 11.9298 13.6202 12.125 13.3334 12.125H11.7084V17.5C11.7084 17.8452 11.4286 18.125 11.0834 18.125H8.08337C7.7382 18.125 7.45837 17.8452 7.45837 17.5V12.125H5.83337C5.4882 12.125 5.20837 11.8452 5.20837 11.5V8.5C5.20837 8.15482 5.4882 7.875 5.83337 7.875H7.45837V6.25C7.45837 5.08968 7.91931 3.97688 8.73978 3.15641ZM11.8334 3.125C11.0046 3.125 10.2097 3.45424 9.62367 4.04029C9.03761 4.62634 8.70837 5.4212 8.70837 6.25V8.5C8.70837 8.84518 8.42855 9.125 8.08337 9.125H6.45837V10.875H8.08337C8.42855 10.875 8.70837 11.1548 8.70837 11.5V16.875H10.4584V11.5C10.4584 11.1548 10.7382 10.875 11.0834 10.875H12.8454L13.2829 9.125H11.0834C10.7382 9.125 10.4584 8.84518 10.4584 8.5V6.25C10.4584 5.88533 10.6032 5.53559 10.8611 5.27773C11.119 5.01987 11.4687 4.875 11.8334 4.875H13.4584V3.125H11.8334Z" fill="#487B6C"/>
</svg>
