<svg width="16" height="16" viewBox="0 0 16 16" fill="none" xmlns="http://www.w3.org/2000/svg">
<path fill-rule="evenodd" clip-rule="evenodd" d="M2.34963 5.90449C2.58585 3.03875 4.98062 0.833252 7.85608 0.833252H8.14404C11.0195 0.833252 13.4143 3.03875 13.6505 5.90449C13.7774 7.44392 13.3019 8.97251 12.3241 10.1683L9.12871 14.0762C8.54538 14.7896 7.45474 14.7896 6.87141 14.0762L3.67603 10.1683C2.69826 8.97252 2.22274 7.44392 2.34963 5.90449ZM7.85608 1.83325C5.50105 1.83325 3.53972 3.63957 3.34625 5.98664C3.24064 7.26786 3.63641 8.54007 4.45018 9.5353L7.64556 13.4432C7.82878 13.6672 8.17134 13.6672 8.35456 13.4432L11.5499 9.5353C12.3637 8.54007 12.7595 7.26786 12.6539 5.98664C12.4604 3.63957 10.4991 1.83325 8.14404 1.83325H7.85608Z" fill="black"/>
<path d="M8.66672 10.6666C8.66672 11.0348 8.36825 11.3333 8.00006 11.3333C7.63187 11.3333 7.33339 11.0348 7.33339 10.6666C7.33339 10.2984 7.63187 9.99992 8.00006 9.99992C8.36825 9.99992 8.66672 10.2984 8.66672 10.6666Z" fill="black"/>
<path fill-rule="evenodd" clip-rule="evenodd" d="M8.00006 5.16659C7.36891 5.16659 6.83339 5.69687 6.83339 6.38087C6.83339 6.65701 6.60953 6.88087 6.33339 6.88087C6.05725 6.88087 5.83339 6.65701 5.83339 6.38087C5.83339 5.17133 6.79026 4.16659 8.00006 4.16659C9.20986 4.16659 10.1667 5.17133 10.1667 6.38087C10.1667 7.33486 9.57457 8.15648 8.73208 8.46546C8.6491 8.4959 8.58161 8.54246 8.54087 8.58781C8.50276 8.63025 8.50006 8.65616 8.50006 8.66659C8.50006 8.94273 8.2762 9.16659 8.00006 9.16659C7.72392 9.16659 7.50006 8.94273 7.50006 8.66659C7.50006 8.05085 7.99569 7.6704 8.38776 7.52661C8.83543 7.36243 9.16672 6.91639 9.16672 6.38087C9.16672 5.69687 8.63121 5.16659 8.00006 5.16659Z" fill="black"/>
</svg>
