<svg width="16" height="16" viewBox="0 0 16 16" fill="none" xmlns="http://www.w3.org/2000/svg">
<path d="M9 6.49989C9 6.22375 8.77614 5.99989 8.5 5.99989H4.5C4.22386 5.99989 4 6.22375 4 6.49989C4 6.77603 4.22386 6.99989 4.5 6.99989H8.5C8.77614 6.99989 9 6.77603 9 6.49989Z" fill="black"/>
<path d="M8.33333 8.49989C8.33333 8.22375 8.10948 7.99989 7.83333 7.99989H4.5C4.22386 7.99989 4 8.22375 4 8.49989C4 8.77603 4.22386 8.99989 4.5 8.99989H7.83333C8.10948 8.99989 8.33333 8.77603 8.33333 8.49989Z" fill="black"/>
<path d="M8.5 9.99989C8.77614 9.99989 9 10.2237 9 10.4999C9 10.776 8.77614 10.9999 8.5 10.9999H4.5C4.22386 10.9999 4 10.776 4 10.4999C4 10.2237 4.22386 9.99989 4.5 9.99989H8.5Z" fill="black"/>
<path fill-rule="evenodd" clip-rule="evenodd" d="M4 14.4999H12.6667C13.6792 14.4999 14.5 13.6791 14.5 12.6666V8.99989C14.5 8.72375 14.2761 8.49989 14 8.49989H11.8333V3.29535C11.8333 2.34642 10.7607 1.79444 9.98856 2.346L9.87186 2.42935C9.35153 2.80101 8.64672 2.79977 8.12395 2.42636C7.25471 1.80547 6.07862 1.80547 5.20938 2.42636C4.68661 2.79977 3.9818 2.80101 3.46148 2.42935L3.34478 2.346C2.5726 1.79444 1.5 2.34642 1.5 3.29535V11.9999C1.5 13.3806 2.61929 14.4999 4 14.4999ZM5.79062 3.24009C6.31217 2.86756 7.02117 2.86756 7.54271 3.24009C8.41074 3.86011 9.58263 3.86485 10.4531 3.24309L10.5698 3.15973C10.6801 3.08094 10.8333 3.15979 10.8333 3.29535V12.6666C10.8333 12.9666 10.9054 13.2499 11.0332 13.4999H4C3.17157 13.4999 2.5 12.8283 2.5 11.9999V3.29535C2.5 3.15979 2.65323 3.08094 2.76354 3.15973L2.88024 3.24309C3.7507 3.86485 4.9226 3.86011 5.79062 3.24009ZM11.8333 12.6666V9.49989H13.5V12.6666C13.5 13.1268 13.1269 13.4999 12.6667 13.4999C12.2064 13.4999 11.8333 13.1268 11.8333 12.6666Z" fill="black"/>
</svg>
