<svg width="50" height="50" viewBox="0 0 50 50" fill="none" xmlns="http://www.w3.org/2000/svg">
<path fill-rule="evenodd" clip-rule="evenodd" d="M25 4.6875C25.8629 4.6875 26.5625 5.38706 26.5625 6.25V29.1667C26.5625 30.0296 25.8629 30.7292 25 30.7292C24.1371 30.7292 23.4375 30.0296 23.4375 29.1667V6.25C23.4375 5.38706 24.1371 4.6875 25 4.6875Z" fill="#10BB87"/>
<path d="M26.5625 34.8958C26.5625 35.7588 25.8629 36.4583 25 36.4583C24.1371 36.4583 23.4375 35.7588 23.4375 34.8958C23.4375 34.0329 24.1371 33.3333 25 33.3333C25.8629 33.3333 26.5625 34.0329 26.5625 34.8958Z" fill="#10BB87"/>
<path fill-rule="evenodd" clip-rule="evenodd" d="M11.3951 23.8951C12.0053 23.285 12.9946 23.285 13.6048 23.8951L19.8548 30.1451C20.465 30.7553 20.465 31.7447 19.8548 32.3549C19.2446 32.965 18.2553 32.965 17.6451 32.3549L11.3951 26.1049C10.7849 25.4947 10.7849 24.5053 11.3951 23.8951ZM38.6048 23.8951C39.215 24.5053 39.215 25.4947 38.6048 26.1049L32.3548 32.3549C31.7446 32.965 30.7553 32.965 30.1451 32.3549C29.5349 31.7447 29.5349 30.7553 30.1451 30.1451L36.3951 23.8951C37.0053 23.285 37.9946 23.285 38.6048 23.8951ZM8.85413 37.5C8.85413 36.6371 9.55368 35.9375 10.4166 35.9375H18.75C19.6129 35.9375 20.3125 36.6371 20.3125 37.5C20.3125 38.3629 19.6129 39.0625 18.75 39.0625H10.4166C9.55368 39.0625 8.85413 38.3629 8.85413 37.5ZM39.5833 39.0625H31.25C30.387 39.0625 29.6875 38.3629 29.6875 37.5C29.6875 36.6371 30.387 35.9375 31.25 35.9375H39.5833C40.4462 35.9375 41.1458 36.6371 41.1458 37.5C41.1458 38.3629 40.4462 39.0625 39.5833 39.0625Z" fill="#10BB87"/>
<path fill-rule="evenodd" clip-rule="evenodd" d="M25 40.1042C25.8629 40.1042 26.5625 40.8037 26.5625 41.6667V43.75C26.5625 44.6129 25.8629 45.3125 25 45.3125C24.1371 45.3125 23.4375 44.6129 23.4375 43.75V41.6667C23.4375 40.8037 24.1371 40.1042 25 40.1042Z" fill="#10BB87"/>
</svg>
