<svg width="16" height="16" viewBox="0 0 16 16" fill="none" xmlns="http://www.w3.org/2000/svg">
<path fill-rule="evenodd" clip-rule="evenodd" d="M13.1666 8.00008C13.1666 7.72394 12.9427 7.50008 12.6666 7.50008H3.33325C3.05711 7.50008 2.83325 7.72394 2.83325 8.00008C2.83325 8.27622 3.05711 8.50008 3.33325 8.50008H12.6666C12.9427 8.50008 13.1666 8.27622 13.1666 8.00008Z" fill="black"/>
<path fill-rule="evenodd" clip-rule="evenodd" d="M13.1666 4.66675C13.1666 4.39061 12.9427 4.16675 12.6666 4.16675H3.33325C3.05711 4.16675 2.83325 4.39061 2.83325 4.66675C2.83325 4.94289 3.05711 5.16675 3.33325 5.16675H12.6666C12.9427 5.16675 13.1666 4.94289 13.1666 4.66675Z" fill="black"/>
<path fill-rule="evenodd" clip-rule="evenodd" d="M13.1666 11.3334C13.1666 11.0573 12.9427 10.8334 12.6666 10.8334H3.33325C3.05711 10.8334 2.83325 11.0573 2.83325 11.3334C2.83325 11.6096 3.05711 11.8334 3.33325 11.8334H12.6666C12.9427 11.8334 13.1666 11.6096 13.1666 11.3334Z" fill="black"/>
</svg>
