<svg width="50" height="50" viewBox="0 0 50 50" fill="none" xmlns="http://www.w3.org/2000/svg">
<path fill-rule="evenodd" clip-rule="evenodd" d="M31.7149 5.87502C32.7318 4.85803 34.3807 4.85803 35.3977 5.87502L44.125 14.6024C45.142 15.6194 45.142 17.2682 44.125 18.2852L39.5941 22.8162C38.5771 23.8332 36.9282 23.8332 35.9112 22.8162L32.6524 19.5574L11.3436 40.8662L9.1339 38.6565L30.4427 17.3477L27.1839 14.0889C26.1669 13.0719 26.1669 11.423 27.1839 10.406L31.7149 5.87502ZM33.5563 8.45301L29.7619 12.2474L37.7526 20.2382L41.547 16.4438L33.5563 8.45301Z" fill="#10BB87"/>
<path fill-rule="evenodd" clip-rule="evenodd" d="M21.0595 18.9325L21.2874 18.7046C22.3044 17.6876 22.3044 16.0388 21.2874 15.0218L14.174 7.9084C13.157 6.89141 11.5082 6.89141 10.4912 7.9084L7.7344 10.6652C6.71741 11.6822 6.7174 13.331 7.73439 14.348L14.8478 21.4614C15.8648 22.4784 17.5136 22.4784 18.5306 21.4614L18.8498 21.1422L35.0259 37.3181L33.5408 31.4136L21.0595 18.9325ZM18.7094 16.8632L12.3326 10.4864L10.3124 12.5066L16.6892 18.8834L18.7094 16.8632Z" fill="#10BB87"/>
</svg>
