<svg width="50" height="50" viewBox="0 0 50 50" fill="none" xmlns="http://www.w3.org/2000/svg">
<path fill-rule="evenodd" clip-rule="evenodd" d="M37.5706 43.2124C29.2101 43.9292 20.7899 43.9292 12.4294 43.2124C11.3577 43.1205 10.4427 42.4751 10.1056 41.5648C9.13148 38.9341 9.13148 36.0659 10.1056 33.4352C10.4427 32.5249 11.3577 31.8795 12.4294 31.7876C20.7899 31.0708 29.2101 31.0708 37.5706 31.7876C38.6424 31.8795 39.5573 32.5249 39.8944 33.4352C40.8685 36.0659 40.8685 38.9341 39.8944 41.5648C39.5573 42.4751 38.6424 43.1205 37.5706 43.2124ZM37.221 40.579C37.9274 38.5822 37.9274 36.4178 37.221 34.421C29.0928 33.7289 20.9072 33.7289 12.779 34.421C12.0727 36.4178 12.0727 38.5822 12.779 40.579C20.9072 41.2711 29.0928 41.2711 37.221 40.579Z" fill="#10BB87"/>
<path fill-rule="evenodd" clip-rule="evenodd" d="M25.0668 2.64464C25.9297 2.64464 26.6293 3.34419 26.6293 4.20714V22.1069C26.6293 23.216 25.9268 24.2034 24.879 24.5671L8.1095 30.3874V35.9867H9.34699C10.2099 35.9867 10.9095 36.6863 10.9095 37.5492C10.9095 38.4122 10.2099 39.1117 9.34699 39.1117H7.58866C6.15042 39.1117 4.9845 37.9458 4.9845 36.5076V30.0169C4.9845 28.9078 5.68698 27.9204 6.73478 27.5567L23.5043 21.7363V4.20714C23.5043 3.34419 24.2038 2.64464 25.0668 2.64464Z" fill="#10BB87"/>
</svg>
