<svg width="20" height="20" viewBox="0 0 20 20" xmlns="http://www.w3.org/2000/svg">
<path fill-rule="evenodd" clip-rule="evenodd" d="M6.45841 6.24992C6.45841 4.29391 8.04407 2.70825 10.0001 2.70825C11.9561 2.70825 13.5417 4.29391 13.5417 6.24992C13.5417 8.20593 11.9561 9.79158 10.0001 9.79158C8.04407 9.79158 6.45841 8.20593 6.45841 6.24992ZM10.0001 3.95825C8.73443 3.95825 7.70842 4.98427 7.70842 6.24992C7.70842 7.51557 8.73443 8.54158 10.0001 8.54158C11.2657 8.54158 12.2917 7.51557 12.2917 6.24992C12.2917 4.98427 11.2657 3.95825 10.0001 3.95825Z" fill="currentcolor"/>
<path fill-rule="evenodd" clip-rule="evenodd" d="M6.66675 12.2916C5.63121 12.2916 4.79175 13.1311 4.79175 14.1666V15.1568C4.79175 15.1719 4.80268 15.1848 4.81756 15.1872C8.24985 15.7476 11.7503 15.7476 15.1826 15.1872C15.1975 15.1848 15.2084 15.1719 15.2084 15.1568V14.1666C15.2084 13.1311 14.3689 12.2916 13.3334 12.2916H13.0494C13.0274 12.2916 13.0056 12.2951 12.9847 12.3019L12.2634 12.5374C10.7927 13.0176 9.20742 13.0176 7.73673 12.5374L7.01547 12.3019C6.99459 12.2951 6.97277 12.2916 6.95081 12.2916H6.66675ZM3.54175 14.1666C3.54175 12.4407 4.94086 11.0416 6.66675 11.0416H6.95081C7.10455 11.0416 7.25733 11.0659 7.40348 11.1136L8.12474 11.3491C9.34331 11.747 10.6569 11.747 11.8754 11.3491L12.5967 11.1136C12.7428 11.0659 12.8956 11.0416 13.0494 11.0416H13.3334C15.0593 11.0416 16.4584 12.4407 16.4584 14.1666V15.1568C16.4584 15.7845 16.0035 16.3197 15.384 16.4208C11.8183 17.003 8.18183 17.003 4.61614 16.4208C3.99665 16.3197 3.54175 15.7845 3.54175 15.1568V14.1666Z" fill="currentcolor"/>
</svg>
