<svg width="20" height="20" viewBox="0 0 20 20" fill="none" xmlns="http://www.w3.org/2000/svg">
<path fill-rule="evenodd" clip-rule="evenodd" d="M8.65491 6.96417C8.46183 6.84833 8.22136 6.84529 8.02542 6.95623C7.82947 7.06717 7.70835 7.27494 7.70835 7.50011V12.5001C7.70835 12.7253 7.82947 12.933 8.02542 13.044C8.22136 13.1549 8.46183 13.1519 8.65491 13.036L12.8216 10.536C13.0098 10.4231 13.125 10.2196 13.125 10.0001C13.125 9.78057 13.0098 9.57713 12.8216 9.46417L8.65491 6.96417ZM11.2852 10.0001L8.95835 11.3962V8.60398L11.2852 10.0001Z" fill="#487B6C"/>
<path fill-rule="evenodd" clip-rule="evenodd" d="M14.1923 3.86784C11.4017 3.64952 8.59838 3.64952 5.80784 3.86784L3.94059 4.01393C2.80512 4.10276 1.87621 4.95376 1.68851 6.07713C1.25454 8.67444 1.25454 11.3258 1.68851 13.9231C1.87621 15.0464 2.80512 15.8975 3.94059 15.9863L5.80784 16.1324C8.59838 16.3507 11.4017 16.3507 14.1922 16.1324L16.0595 15.9863C17.195 15.8975 18.1239 15.0464 18.3116 13.9231C18.7455 11.3258 18.7455 8.67444 18.3116 6.07713C18.1239 4.95376 17.195 4.10276 16.0595 4.01393L14.1923 3.86784ZM5.90534 5.11403C8.63098 4.90079 11.3691 4.90079 14.0948 5.11403L15.962 5.26012C16.525 5.30417 16.9856 5.72612 17.0787 6.28313C17.4898 8.74406 17.4898 11.2562 17.0787 13.7171C16.9856 14.2741 16.525 14.696 15.962 14.7401L14.0948 14.8862C11.3691 15.0994 8.63098 15.0994 5.90534 14.8862L4.03809 14.7401C3.47508 14.696 3.01449 14.2741 2.92142 13.7171C2.51024 11.2562 2.51024 8.74406 2.92142 6.28313C3.01449 5.72612 3.47508 5.30417 4.03809 5.26012L5.90534 5.11403Z" fill="#487B6C"/>
</svg>
