<svg width="78" height="54" viewBox="0 0 78 54" fill="none" xmlns="http://www.w3.org/2000/svg">
<path d="M10.45 43.3042H67.2038L38.9774 15.0461L10.45 43.3042Z" fill="black" fill-opacity="0.07"/>
<path d="M9.36557 41.9146L13.7872 37.5962L12.3144 36.084L9.53722 38.7976L4.64485 33.7758L3 35.3823L9.36557 41.9146Z" fill="#487B6C"/>
<path d="M14.7578 36.6127L19.2884 32.1864L18.0442 30.9104L15.1675 33.7199L13.786 32.3021L16.0913 30.0504L14.7893 28.7154L12.4841 30.9658L11.3005 29.7514L14.0827 27.0334L12.8393 25.7578L8.323 30.1693L14.7578 36.6127Z" fill="#487B6C"/>
<path d="M29.5868 15.6292C27.7596 13.7541 24.5899 13.9784 23.0635 15.4697C21.5366 16.961 20.7574 19.9345 22.9135 22.1472C25.2819 24.5773 28.0997 23.6947 29.6265 22.2043C31.8777 20.0055 31.0764 17.1578 29.5868 15.6292ZM28.2439 20.9201C27.2332 21.9073 25.9976 21.6395 24.5858 20.1904C23.3994 18.9731 23.4707 17.7501 24.3335 16.9072C24.9267 16.3277 26.1316 15.8093 27.565 17.2805C29.2005 18.9588 29.2545 19.9329 28.2439 20.9201Z" fill="#487B6C"/>
<path d="M34.6828 17.1866L36.3543 15.5534L33.8397 12.9732L32.3345 6.70374L30.4184 8.57563L31.4152 12.1324L28.0476 10.8909L26.241 12.6553L31.9822 14.501L34.6828 17.1866Z" fill="#487B6C"/>
<path d="M25.7707 25.9014C25.7707 25.9014 21.7026 24.5118 21.5093 24.5454C21.4466 24.5557 22.3831 22.0608 20.279 20.9551C20.279 20.9551 18.7177 20.1089 17.1552 21.5301L13.825 24.8157L20.245 31.2886L21.9435 29.6296L18.4695 26.0654L24.0853 27.5477L25.7707 25.9014ZM19.4699 25.0126C18.526 25.933 18.3986 26.0056 18.3986 26.0056C18.3986 26.0056 16.9188 24.4872 16.8664 24.4335C16.814 24.3798 17.9246 23.4266 18.0995 23.2555C18.1737 23.183 18.8652 22.7314 19.4375 23.3183C19.4375 23.3183 20.4134 24.0906 19.4699 25.0126Z" fill="#487B6C"/>
<path d="M34.1642 7.93915L32.6787 6.43967L39.1639 0L41.2864 2.14218L38.95 6.74563L43.7134 4.59197L45.7556 6.65376L39.2704 13.0934L37.705 11.5136L41.1283 8.11469L36.4453 10.2417L35.4772 9.26433L37.6538 4.58048L34.1642 7.93915Z" fill="#487B6C"/>
<path d="M45.4245 19.3051L40.9279 14.7668L47.4135 8.32715L51.9228 12.8789L50.6126 14.1799L47.7875 11.3286L46.7309 12.3773L48.9592 14.6265L47.5949 15.9808L45.3802 13.7451L43.9627 15.1523L46.7612 17.977L45.4245 19.3051Z" fill="#487B6C"/>
<path d="M60.252 21.2861L61.923 22.9735L57.0155 27.846L59.7608 30.6161L58.1827 32.1841L53.7664 27.7262L60.252 21.2861Z" fill="#487B6C"/>
<path d="M59.3499 33.3623L65.8355 26.9227L67.4668 28.569L60.9812 35.0082L59.3499 33.3623Z" fill="#487B6C"/>
<path d="M63.9387 37.9948L62.4131 36.4547L68.8991 30.0154L71.1142 32.2499L69.2215 38.9361L73.5145 34.673L75 36.1725L68.5148 42.6118L66.5779 40.6579L68.2457 33.6387L63.9387 37.9948Z" fill="#487B6C"/>
<path d="M57.3211 18.3277L53.3821 14.3514L46.8829 20.7779L48.554 22.4644L52.0973 18.9462L50.822 24.7539L52.5328 26.481C52.5328 26.481 53.8815 22.3266 53.9228 22.1535C53.9228 22.1535 55.3842 22.9595 56.9876 21.5793C56.9876 21.5793 58.5256 20.079 57.3211 18.3277ZM54.9159 20.2111C54.9159 20.2111 54.0879 20.7677 53.3583 20.0315L52.2186 18.8265C52.2186 18.8265 53.5955 17.459 53.7692 17.2864C53.7692 17.2864 54.8303 18.3577 54.963 18.4914C55.0953 18.6251 55.9319 19.2551 54.9159 20.2111Z" fill="#487B6C"/>
</svg>
